<?xml version="1.0" encoding="UTF-8" standalone="no"?>
<svg
   xmlns:dc="http://purl.org/dc/elements/1.1/"
   xmlns:cc="http://creativecommons.org/ns#"
   xmlns:rdf="http://www.w3.org/1999/02/22-rdf-syntax-ns#"
   xmlns:svg="http://www.w3.org/2000/svg"
   xmlns="http://www.w3.org/2000/svg"
   xmlns:sodipodi="http://sodipodi.sourceforge.net/DTD/sodipodi-0.dtd"
   xmlns:inkscape="http://www.inkscape.org/namespaces/inkscape"
   viewBox="0 0 512 512"
   id="svg3069"
   version="1.1"
   inkscape:version="0.48.2 r9819"
   width="100%"
   height="100%"
   sodipodi:docname="ship.svg"
   inkscape:export-filename="/Applications/MAMP/htdocs/IWP-Webgame/merge/images/ship2.png"
   inkscape:export-xdpi="5.0915747"
   inkscape:export-ydpi="5.0915747">
  <metadata
     id="metadata3113">
    <rdf:RDF>
      <cc:Work
         rdf:about="">
        <dc:format>image/svg+xml</dc:format>
        <dc:type
           rdf:resource="http://purl.org/dc/dcmitype/StillImage" />
        <dc:title></dc:title>
      </cc:Work>
    </rdf:RDF>
  </metadata>
  <defs
     id="defs3111">
    <filter
       inkscape:collect="always"
       id="filter3759">
      <feGaussianBlur
         inkscape:collect="always"
         stdDeviation="14.119018404907974"
         id="feGaussianBlur3761"
         in="SourceAlpha" />
      <feOffset
         dx="0"
         dy="0"
         id="feOffset3763"
         result="result1" />
      <feMerge
         id="feMerge3765">
        <feMergeNode
           inkscape:collect="always"
           id="feMergeNode3767"
           in="result1" />
        <feMergeNode
           inkscape:collect="always"
           id="feMergeNode3769"
           in="SourceGraphic" />
      </feMerge>
    </filter>
  </defs>
  <sodipodi:namedview
     pagecolor="#ffffff"
     bordercolor="#666666"
     borderopacity="1"
     objecttolerance="10"
     gridtolerance="10"
     guidetolerance="10"
     inkscape:pageopacity="0"
     inkscape:pageshadow="2"
     inkscape:window-width="1427"
     inkscape:window-height="1058"
     id="namedview3109"
     showgrid="false"
     inkscape:zoom="1"
     inkscape:cx="-45.76095"
     inkscape:cy="327.96169"
     inkscape:window-x="131"
     inkscape:window-y="0"
     inkscape:window-maximized="0"
     inkscape:current-layer="svg3069" />
  <path
     style="fill:#aa0000;fill-opacity:1;stroke:#060000;stroke-width:1;stroke-linejoin:round;stroke-miterlimit:4;stroke-opacity:1;stroke-dasharray:none;filter:url(#filter3759)"
     d="m 301.69219,45.322134 c 0.23234,0.74627 0.9503,7.65685 1.59546,15.35685 5.75376,68.670326 23.19767,122.626006 56.86978,175.903576 9.71021,15.36394 20.0825,29.59642 21.56916,29.59642 1.52983,0 2.10415,-12.27692 3.10897,-66.45813 0.32597,-17.57698 0.8129,-32.31448 1.08207,-32.75 0.26917,-0.43553 5.86285,-0.79187 12.43039,-0.79187 l 11.94098,0 0,65.88213 0,65.88213 12.25,8.58162 c 20.37381,14.27267 40.58353,23.34494 57.40019,25.76732 4.3174,0.6219 8.23252,1.48106 8.70029,1.90924 1.75173,1.60351 -13.52892,23.81379 -25.52844,37.10534 -9.67396,10.7156 -27.01064,25.99889 -37.46505,33.02762 -18.07119,12.14966 -44.32363,26.8446 -47.95775,26.8446 -0.66361,0 -11.71241,-20.0125 -24.5529,-44.47221 -16.06883,-30.60935 -23.85418,-44.48087 -24.9755,-44.5 -2.06603,-0.0352 -11.63939,4.32518 -19.16563,8.72947 l -5.7948,3.39105 22.0448,43.37596 c 12.12463,23.85677 22.04479,43.80915 22.04479,44.33861 0,1.76051 -39.05282,10.16316 -57,12.2642 -21.81856,2.55424 -64.98147,1.25277 -89.5,-2.69867 -10.19045,-1.6423 -33.41005,-7.13675 -35.42644,-8.38295 -1.01815,-0.62925 1.72372,-6.67077 11.65641,-25.68413 23.9621,-45.86873 32.27003,-62.13159 32.27003,-63.1689 0,-1.41219 -20.28781,-11.19243 -23.21722,-11.19243 -2.68104,0 -7.20371,7.76924 -34.78278,59.75139 -8.525,16.06826 -15.97567,29.22258 -16.55704,29.23182 -2.09474,0.0333 -27.16979,-13.02672 -37.442961,-19.50164 -15.8016,-9.95936 -23.98008,-16.54284 -40.35102,-32.48157 -9.76579,-9.50797 -17.17502,-17.75592 -21.52108,-23.95723 -7.64908,-10.91433 -14.20659,-21.29742 -13.74319,-21.76081 0.17578,-0.17578 5.67362,-1.62781 12.21744,-3.22674 20.14877,-4.92319 33.72928,-11.65508 54.64785,-27.08908 l 10.75,-7.93149 0,-65.01732 0,-65.01733 12.338441,0 12.33845,0 0.68668,45.50064 c 0.37768,25.02536 0.9609,46.8717 1.29604,48.54743 1.23275,6.16373 4.47334,2.86737 19.7537,-20.09363 21.57308,-32.41676 34.97724,-60.69737 46.42747,-97.95444 9.2674,-30.15454 11.2975,-40.32008 14.57071,-72.961386 1.27403,-12.70491 2.64008,-23.42356 3.03569,-23.81923 0.3956,-0.39566 21.1525,-0.87996 46.12643,-1.07623 37.59002,-0.29541 45.47988,-0.12325 45.82958,1 z"
     id="path3966"
     inkscape:connector-curvature="0"
     inkscape:export-filename="/Applications/MAMP/htdocs/IWP-Webgame/merge/images/ship_damage.png"
     inkscape:export-xdpi="5.0915747"
     inkscape:export-ydpi="5.0915747" />
</svg>
